<?xml version="1.0" standalone="no"?>
<svg xmlns="http://www.w3.org/2000/svg" viewBox="0 0 126 65" width="126" height="65"><g fill="#ff0000" color="#ff0000" transform="translate(49.496 0) scale(0.6078432) "><svg width="44.0" height="51.0" x="0.0" y="0.0" viewBox="0 0 44 51"><path fill="currentColor" fill-rule="evenodd" d="M22 0L0 12.571v25.143l22 12.572 21.994-12.568.006-.01V12.571L22 0zM6.354 13.778L22 4.84l15.645 8.938-4.231 2.419L22 9.678l-11.411 6.52-4.235-2.42zm17.764 10.158v-8.21L31.3 19.83v8.208l-7.182-4.101zm-11.416-4.107l7.18-4.102v8.207l-7.18 4.103v-8.208zm11.416 19.57l11.415-6.522V19.826l4.233-2.42v17.89l-15.648 8.941v-4.838zM4.233 35.296v-17.89l4.233 2.42v13.049l11.416 6.524v4.838l-15.649-8.94zm10.583-3.63l7.182-4.104 7.183 4.104L22 35.768l-7.184-4.102z"></path></svg></g><line x1="50.29780392156864" y1="37" x2="75.43819607843137" y2="37" stroke="#ffffff" stroke-linecap="round"></line><path fill="#ffffff" fill-rule="nonzero" d="M9.26 0Q10.80 0 12 0.71Q13.20 1.42 13.87 2.65Q14.54 3.89 14.54 5.42L14.54 5.42L14.54 5.74Q14.54 7.27 13.87 8.52Q13.20 9.77 12 10.48Q10.80 11.18 9.26 11.18L9.26 11.18L5.30 11.18L5.30 16.51L0 16.51L0 0L9.26 0ZM5.30 3.91L5.30 7.32L7.49 7.32Q8.33 7.32 8.75 6.89Q9.17 6.46 9.17 5.71L9.17 5.71L9.17 5.52Q9.17 4.75 8.75 4.33Q8.33 3.91 7.49 3.91L7.49 3.91L5.30 3.91ZM24.70 3.53Q25.25 3.53 25.68 3.66Q26.11 3.79 26.11 3.82L26.11 3.82L26.11 7.82L24.58 7.82Q23.09 7.82 22.43 8.59Q21.77 9.36 21.77 10.87L21.77 10.87L21.77 16.51L16.99 16.51L16.99 3.84L20.90 3.84L21.22 5.76Q21.65 4.66 22.58 4.09Q23.52 3.53 24.70 3.53L24.70 3.53ZM34.58 3.55Q37.92 3.55 39.83 5.24Q41.74 6.94 41.74 10.18L41.74 10.18Q41.74 13.42 39.83 15.11Q37.92 16.80 34.58 16.80L34.58 16.80Q31.25 16.80 29.35 15.12Q27.46 13.44 27.46 10.18L27.46 10.18Q27.46 6.91 29.35 5.23Q31.25 3.55 34.58 3.55L34.58 3.55ZM34.58 6.79Q32.23 6.79 32.23 9.50L32.23 9.50L32.23 10.87Q32.23 13.56 34.58 13.56L34.58 13.56Q36.96 13.56 36.96 10.87L36.96 10.87L36.96 9.50Q36.96 6.79 34.58 6.79L34.58 6.79ZM49.80 3.84L52.49 3.84L52.49 7.08L49.80 7.08L49.80 11.90Q49.80 12.77 50.09 13.16Q50.38 13.56 51.14 13.56L51.14 13.56L52.49 13.56L52.49 16.37Q51.91 16.56 51.00 16.68Q50.09 16.80 49.42 16.80L49.42 16.80Q47.30 16.80 46.16 16.03Q45.02 15.26 45.02 13.42L45.02 13.42L45.02 7.08L43.25 7.08L43.25 3.84L45.22 3.84L46.25 0L49.80 0L49.80 3.84ZM61.25 3.55Q64.58 3.55 66.49 5.24Q68.40 6.94 68.40 10.18L68.40 10.18Q68.40 13.42 66.49 15.11Q64.58 16.80 61.25 16.80L61.25 16.80Q57.91 16.80 56.02 15.12Q54.12 13.44 54.12 10.18L54.12 10.18Q54.12 6.91 56.02 5.23Q57.91 3.55 61.25 3.55L61.25 3.55ZM61.25 6.79Q58.90 6.79 58.90 9.50L58.90 9.50L58.90 10.87Q58.90 13.56 61.25 13.56L61.25 13.56Q63.62 13.56 63.62 10.87L63.62 10.87L63.62 9.50Q63.62 6.79 61.25 6.79L61.25 6.79ZM76.46 3.84L79.15 3.84L79.15 7.08L76.46 7.08L76.46 11.90Q76.46 12.77 76.75 13.16Q77.04 13.56 77.81 13.56L77.81 13.56L79.15 13.56L79.15 16.37Q78.58 16.56 77.66 16.68Q76.75 16.80 76.08 16.80L76.08 16.80Q73.97 16.80 72.83 16.03Q71.69 15.26 71.69 13.42L71.69 13.42L71.69 7.08L69.91 7.08L69.91 3.84L71.88 3.84L72.91 0L76.46 0L76.46 3.84ZM90.07 16.13Q89.09 18.79 87.66 20.17Q86.23 21.55 83.66 21.55L83.66 21.55Q82.10 21.55 80.90 21.12L80.90 21.12L80.90 18.26L82.82 18.26Q84.62 18.26 84.96 16.51L84.96 16.51L79.92 3.84L85.06 3.84L87.48 12.26L87.65 12.26L89.88 3.84L94.58 3.84L90.07 16.13ZM104.38 3.55Q106.94 3.55 108.34 5.23Q109.73 6.91 109.73 10.20L109.73 10.20Q109.73 13.46 108.34 15.13Q106.94 16.80 104.38 16.80L104.38 16.80Q102.17 16.80 100.82 15.36L100.82 15.36L100.82 21.24L96.05 21.24L96.05 3.84L99.94 3.84L100.34 5.64Q101.74 3.55 104.38 3.55L104.38 3.55ZM102.89 7.08Q101.83 7.08 101.30 7.82Q100.78 8.57 100.78 9.77L100.78 9.77L100.78 10.56Q100.78 11.76 101.30 12.52Q101.83 13.27 102.89 13.27L102.89 13.27Q104.95 13.27 104.95 10.80L104.95 10.80L104.95 9.53Q104.95 7.08 102.89 7.08L102.89 7.08ZM118.58 3.55Q122.06 3.55 123.90 5.18Q125.74 6.82 125.74 10.18L125.74 10.18L125.74 10.99L116.23 10.99Q116.23 12.36 116.84 13.06Q117.46 13.75 118.78 13.75L118.78 13.75Q119.98 13.75 120.54 13.25Q121.10 12.74 121.10 11.90L121.10 11.90L125.74 11.90Q125.74 14.21 123.98 15.50Q122.23 16.80 118.87 16.80L118.87 16.80Q115.34 16.80 113.40 15.16Q111.46 13.51 111.46 10.18L111.46 10.18Q111.46 6.91 113.35 5.23Q115.25 3.55 118.58 3.55L118.58 3.55ZM118.78 6.60Q116.52 6.60 116.26 8.74L116.26 8.74L120.91 8.74Q120.91 7.75 120.35 7.18Q119.78 6.60 118.78 6.60L118.78 6.60Z" transform="translate(0, 43)"></path></svg>